<svg xmlns="http://www.w3.org/2000/svg" xmlns:xlink="http://www.w3.org/1999/xlink" width="2000" zoomAndPan="magnify" viewBox="0 0 1500 1499.999933" height="2000" preserveAspectRatio="xMidYMid meet" version="1.0"><defs><g/><clipPath id="c466fbad26"><path d="M 75.320312 516.515625 L 431.570312 516.515625 L 431.570312 872.765625 L 75.320312 872.765625 Z M 75.320312 516.515625 " clip-rule="nonzero"/></clipPath></defs><g clip-path="url(#c466fbad26)"><path fill="#ff7f11" d="M 405.082031 634.960938 L 396.507812 628.632812 L 352.382812 596.050781 L 319.78125 551.914062 L 313.441406 543.351562 L 293.632812 516.515625 L 213.589844 516.515625 L 193.761719 543.351562 L 187.433594 551.914062 L 154.832031 596.050781 L 110.707031 628.632812 L 102.140625 634.992188 L 75.320312 654.808594 L 75.320312 734.832031 L 102.152344 754.671875 L 110.714844 761 L 154.84375 793.582031 L 187.445312 837.71875 L 193.804688 846.28125 L 213.601562 873.113281 L 293.644531 873.113281 L 313.472656 846.28125 L 319.800781 837.71875 L 352.402344 793.582031 L 396.53125 761 L 405.105469 754.640625 L 431.9375 734.832031 L 431.9375 654.789062 L 405.105469 634.960938 Z M 401.570312 700.910156 C 400.136719 702.34375 399.335938 703.144531 397.902344 704.578125 L 356.113281 704.578125 L 302.863281 743.53125 L 302.863281 744.082031 L 302.3125 744.082031 L 263.359375 797.34375 L 263.359375 839.109375 L 259.691406 842.777344 L 247.503906 842.777344 C 246.066406 841.34375 245.277344 840.542969 243.855469 839.109375 L 243.855469 797.320312 L 204.902344 744.070312 L 204.351562 744.070312 L 204.351562 743.519531 L 151.089844 704.570312 L 109.304688 704.570312 C 107.867188 703.136719 107.078125 702.335938 105.65625 700.902344 L 105.65625 688.71875 C 107.089844 687.285156 107.878906 686.484375 109.304688 685.050781 L 151.101562 685.050781 L 204.351562 646.101562 L 204.351562 645.550781 L 204.902344 645.550781 L 243.855469 592.289062 L 243.855469 550.519531 C 245.289062 549.085938 246.078125 548.285156 247.503906 546.851562 L 259.691406 546.851562 C 261.125 548.285156 261.925781 549.085938 263.359375 550.519531 L 263.359375 592.308594 L 302.3125 645.5625 L 302.863281 645.5625 L 302.863281 646.113281 L 356.125 685.0625 L 397.890625 685.0625 L 401.558594 688.730469 L 401.558594 700.910156 Z M 401.570312 700.910156 " fill-opacity="1" fill-rule="nonzero"/></g><g fill="#ff7f11" fill-opacity="1"><g transform="translate(464.422385, 745.055124)"><g><path d="M 104.53125 -129.96875 L 104.53125 -103.796875 L 68.328125 -103.796875 L 68.328125 0 L 40.109375 0 L 40.109375 -103.796875 L 4.078125 -103.796875 L 4.078125 -129.96875 Z M 104.53125 -129.96875 "/></g></g></g><g fill="#ff7f11" fill-opacity="1"><g transform="translate(563.570612, 745.055124)"><g><path d="M 94.875 -100.453125 L 115.109375 -100.453125 L 115.109375 -0.1875 L 93.765625 -0.1875 L 91.53125 -9.09375 C 87.195312 -5.382812 82.273438 -2.476562 76.765625 -0.375 C 71.265625 1.726562 65.359375 2.78125 59.046875 2.78125 C 49.015625 2.78125 40.035156 0.460938 32.109375 -4.171875 C 24.191406 -8.816406 17.941406 -15.128906 13.359375 -23.109375 C 8.785156 -31.097656 6.5 -40.164062 6.5 -50.3125 C 6.5 -60.34375 8.785156 -69.347656 13.359375 -77.328125 C 17.941406 -85.316406 24.191406 -91.597656 32.109375 -96.171875 C 40.035156 -100.753906 49.015625 -103.046875 59.046875 -103.046875 C 65.484375 -103.046875 71.484375 -101.960938 77.046875 -99.796875 C 82.617188 -97.628906 87.570312 -94.628906 91.90625 -90.796875 Z M 61.265625 -22.84375 C 66.460938 -22.84375 71.132812 -24.015625 75.28125 -26.359375 C 79.4375 -28.710938 82.6875 -31.960938 85.03125 -36.109375 C 87.382812 -40.253906 88.5625 -44.988281 88.5625 -50.3125 C 88.5625 -55.507812 87.382812 -60.179688 85.03125 -64.328125 C 82.6875 -68.484375 79.4375 -71.765625 75.28125 -74.171875 C 71.132812 -76.585938 66.460938 -77.796875 61.265625 -77.796875 C 55.941406 -77.796875 51.238281 -76.585938 47.15625 -74.171875 C 43.070312 -71.765625 39.851562 -68.484375 37.5 -64.328125 C 35.15625 -60.179688 33.984375 -55.507812 33.984375 -50.3125 C 33.984375 -44.988281 35.15625 -40.285156 37.5 -36.203125 C 39.851562 -32.117188 43.070312 -28.867188 47.15625 -26.453125 C 51.238281 -24.046875 55.941406 -22.84375 61.265625 -22.84375 Z M 61.265625 -22.84375 "/></g></g></g><g fill="#ff7f11" fill-opacity="1"><g transform="translate(682.400043, 745.055124)"><g><path d="M 48.640625 2.78125 C 40.222656 2.78125 32.859375 1.296875 26.546875 -1.671875 C 20.234375 -4.640625 15.3125 -8.816406 11.78125 -14.203125 C 8.257812 -19.585938 6.5 -25.867188 6.5 -33.046875 L 32.859375 -33.046875 C 32.984375 -28.585938 34.59375 -25.242188 37.6875 -23.015625 C 40.78125 -20.796875 44.742188 -19.6875 49.578125 -19.6875 C 53.410156 -19.6875 56.75 -20.519531 59.59375 -22.1875 C 62.445312 -23.851562 63.875 -26.359375 63.875 -29.703125 C 63.875 -33.171875 61.984375 -35.613281 58.203125 -37.03125 C 54.429688 -38.457031 49.882812 -39.601562 44.5625 -40.46875 C 40.601562 -41.09375 36.488281 -41.960938 32.21875 -43.078125 C 27.945312 -44.191406 24.015625 -45.800781 20.421875 -47.90625 C 16.835938 -50.007812 13.898438 -52.914062 11.609375 -56.625 C 9.316406 -60.34375 8.171875 -65.171875 8.171875 -71.109375 C 8.171875 -77.421875 9.867188 -82.988281 13.265625 -87.8125 C 16.671875 -92.644531 21.375 -96.390625 27.375 -99.046875 C 33.382812 -101.710938 40.472656 -103.046875 48.640625 -103.046875 C 56.691406 -103.046875 63.71875 -101.648438 69.71875 -98.859375 C 75.71875 -96.078125 80.390625 -92.179688 83.734375 -87.171875 C 87.078125 -82.160156 88.75 -76.3125 88.75 -69.625 L 62.9375 -69.625 C 62.9375 -73.582031 61.601562 -76.550781 58.9375 -78.53125 C 56.28125 -80.519531 52.601562 -81.515625 47.90625 -81.515625 C 43.695312 -81.515625 40.414062 -80.613281 38.0625 -78.8125 C 35.707031 -77.019531 34.53125 -74.703125 34.53125 -71.859375 C 34.53125 -68.515625 36.382812 -66.222656 40.09375 -64.984375 C 43.8125 -63.742188 48.269531 -62.691406 53.46875 -61.828125 C 57.550781 -61.085938 61.757812 -60.191406 66.09375 -59.140625 C 70.425781 -58.085938 74.445312 -56.507812 78.15625 -54.40625 C 81.875 -52.300781 84.878906 -49.390625 87.171875 -45.671875 C 89.460938 -41.960938 90.609375 -37.070312 90.609375 -31 C 90.609375 -24.195312 88.875 -18.253906 85.40625 -13.171875 C 81.9375 -8.097656 77.046875 -4.171875 70.734375 -1.390625 C 64.421875 1.390625 57.054688 2.78125 48.640625 2.78125 Z M 48.640625 2.78125 "/></g></g></g><g fill="#ff7f11" fill-opacity="1"><g transform="translate(770.593654, 745.055124)"><g><path d="M 105.09375 0 L 72.21875 0 L 40.109375 -47.90625 L 40.109375 0 L 13 0 L 13 -136.46875 L 40.109375 -136.46875 L 40.109375 -55.703125 L 70.1875 -100.265625 L 101.375 -100.265625 L 67.578125 -52.546875 Z M 105.09375 0 "/></g></g></g><g fill="#ff7f11" fill-opacity="1"><g transform="translate(865.471393, 745.055124)"><g><path d="M 64.796875 -129.96875 C 73.585938 -129.96875 81.414062 -128.015625 88.28125 -124.109375 C 95.15625 -120.210938 100.632812 -114.890625 104.71875 -108.140625 C 108.800781 -101.398438 110.84375 -93.757812 110.84375 -85.21875 C 110.84375 -76.675781 108.832031 -69.03125 104.8125 -62.28125 C 100.789062 -55.539062 95.3125 -50.25 88.375 -46.40625 C 81.445312 -42.570312 73.585938 -40.65625 64.796875 -40.65625 L 43.078125 -40.65625 L 43.078125 0 L 14.859375 0 L 14.859375 -129.96875 Z M 63.6875 -66.65625 C 69.257812 -66.65625 73.742188 -68.414062 77.140625 -71.9375 C 80.546875 -75.46875 82.25 -79.894531 82.25 -85.21875 C 82.25 -90.664062 80.546875 -95.148438 77.140625 -98.671875 C 73.742188 -102.203125 69.257812 -103.96875 63.6875 -103.96875 L 43.078125 -103.96875 L 43.078125 -66.65625 Z M 63.6875 -66.65625 "/></g></g></g><g fill="#ff7f11" fill-opacity="1"><g transform="translate(971.675165, 745.055124)"><g><path d="M 13 -113.625 L 13 -138.875 L 40.109375 -138.875 L 40.109375 -113.625 Z M 13 0 L 13 -100.265625 L 40.109375 -100.265625 L 40.109375 0 Z M 13 0 "/></g></g></g><g fill="#ff7f11" fill-opacity="1"><g transform="translate(1015.493215, 745.055124)"><g><path d="M 13 0 L 13 -136.46875 L 40.109375 -136.46875 L 40.109375 0 Z M 13 0 "/></g></g></g><g fill="#ff7f11" fill-opacity="1"><g transform="translate(1059.311266, 745.055124)"><g><path d="M 60.71875 2.78125 C 50.320312 2.78125 41.035156 0.460938 32.859375 -4.171875 C 24.691406 -8.816406 18.253906 -15.128906 13.546875 -23.109375 C 8.847656 -31.097656 6.5 -40.101562 6.5 -50.125 C 6.5 -60.28125 8.847656 -69.347656 13.546875 -77.328125 C 18.253906 -85.316406 24.691406 -91.597656 32.859375 -96.171875 C 41.035156 -100.753906 50.320312 -103.046875 60.71875 -103.046875 C 70.988281 -103.046875 80.207031 -100.753906 88.375 -96.171875 C 96.550781 -91.597656 102.988281 -85.316406 107.6875 -77.328125 C 112.394531 -69.347656 114.75 -60.28125 114.75 -50.125 C 114.75 -40.101562 112.394531 -31.097656 107.6875 -23.109375 C 102.988281 -15.128906 96.550781 -8.816406 88.375 -4.171875 C 80.207031 0.460938 70.988281 2.78125 60.71875 2.78125 Z M 60.71875 -22.65625 C 68.507812 -22.65625 74.878906 -25.191406 79.828125 -30.265625 C 84.785156 -35.335938 87.265625 -41.957031 87.265625 -50.125 C 87.265625 -58.300781 84.785156 -64.925781 79.828125 -70 C 74.878906 -75.070312 68.507812 -77.609375 60.71875 -77.609375 C 52.789062 -77.609375 46.351562 -75.070312 41.40625 -70 C 36.457031 -64.925781 33.984375 -58.300781 33.984375 -50.125 C 33.984375 -41.957031 36.457031 -35.335938 41.40625 -30.265625 C 46.351562 -25.191406 52.789062 -22.65625 60.71875 -22.65625 Z M 60.71875 -22.65625 "/></g></g></g><g fill="#ff7f11" fill-opacity="1"><g transform="translate(1171.27082, 745.055124)"><g><path d="M 62.015625 -24.140625 L 74.265625 -24.140625 L 74.265625 0 L 55.140625 0 C 44.128906 0 35.4375 -3.1875 29.0625 -9.5625 C 22.6875 -15.9375 19.5 -24.691406 19.5 -35.828125 L 19.5 -78.546875 L 1.296875 -78.546875 L 1.296875 -84.296875 L 41.03125 -126.4375 L 46.046875 -126.4375 L 46.046875 -100.265625 L 73.71875 -100.265625 L 73.71875 -78.546875 L 46.609375 -78.546875 L 46.609375 -39.359375 C 46.609375 -34.535156 47.9375 -30.789062 50.59375 -28.125 C 53.257812 -25.46875 57.066406 -24.140625 62.015625 -24.140625 Z M 62.015625 -24.140625 "/></g></g></g><g fill="#ff7f11" fill-opacity="1"><g transform="translate(1241.825608, 745.055124)"><g><path d="M 11.140625 0 L 11.140625 -28.96875 L 39.921875 -28.96875 L 39.921875 0 Z M 11.140625 0 "/></g></g></g><g fill="#ff7f11" fill-opacity="1"><g transform="translate(1283.41554, 745.055124)"><g><path d="M 101.1875 0 L 92.09375 -24.6875 L 40.296875 -24.6875 L 31.375 0 L 1.671875 0 L 52.546875 -129.96875 L 79.09375 -129.96875 L 131.640625 0 Z M 66.09375 -95.625 L 49.203125 -49.203125 L 83.1875 -49.203125 Z M 66.09375 -95.625 "/></g></g></g><g fill="#ff7f11" fill-opacity="1"><g transform="translate(1407.44385, 745.055124)"><g><path d="M 14.859375 0 L 14.859375 -129.96875 L 43.078125 -129.96875 L 43.078125 0 Z M 14.859375 0 "/></g></g></g></svg>