<svg xmlns="http://www.w3.org/2000/svg" xmlns:xlink="http://www.w3.org/1999/xlink" width="1080" zoomAndPan="magnify" viewBox="0 0 810 809.999993" height="1080" preserveAspectRatio="xMidYMid meet" version="1.0"><path fill="#ff7f11" d="M 357.757812 110.972656 C 372.625 65.210938 437.367188 65.210938 452.238281 110.972656 L 505.363281 274.480469 C 512.011719 294.945312 531.085938 308.804688 552.605469 308.804688 L 724.527344 308.804688 C 772.640625 308.804688 792.648438 370.375 753.722656 398.660156 L 614.632812 499.710938 C 597.222656 512.359375 589.941406 534.78125 596.589844 555.246094 L 649.714844 718.75 C 664.582031 764.515625 612.210938 802.570312 573.28125 774.289062 L 434.191406 673.234375 C 416.785156 660.585938 393.210938 660.585938 375.800781 673.234375 L 236.714844 774.289062 C 197.785156 802.570312 145.40625 764.515625 160.277344 718.75 L 213.402344 555.246094 C 220.054688 534.78125 212.769531 512.359375 195.359375 499.710938 L 56.273438 398.660156 C 17.34375 370.375 37.351562 308.804688 85.46875 308.804688 L 257.390625 308.804688 C 278.910156 308.804688 297.980469 294.945312 304.628906 274.480469 Z M 357.757812 110.972656 " fill-opacity="1" fill-rule="nonzero"/></svg>