<svg xmlns="http://www.w3.org/2000/svg" xmlns:xlink="http://www.w3.org/1999/xlink" width="1080" zoomAndPan="magnify" viewBox="0 0 810 809.999993" height="1080" preserveAspectRatio="xMidYMid meet" version="1.0"><path fill="#ff7f11" d="M 358.230469 118.003906 C 372.949219 72.699219 437.039062 72.699219 451.761719 118.003906 L 504.351562 279.867188 C 510.933594 300.125 529.816406 313.84375 551.117188 313.84375 L 721.3125 313.84375 C 768.945312 313.84375 788.75 374.796875 750.214844 402.796875 L 612.523438 502.832031 C 595.289062 515.355469 588.082031 537.546875 594.660156 557.808594 L 647.253906 719.671875 C 661.972656 764.972656 610.125 802.648438 571.589844 774.652344 L 433.898438 674.609375 C 416.664062 662.089844 393.328125 662.089844 376.09375 674.609375 L 238.402344 774.652344 C 199.867188 802.648438 148.015625 764.972656 162.734375 719.671875 L 215.328125 557.808594 C 221.910156 537.546875 214.699219 515.355469 197.464844 502.832031 L 59.773438 402.796875 C 21.238281 374.796875 41.042969 313.84375 88.679688 313.84375 L 258.871094 313.84375 C 280.175781 313.84375 299.054688 300.125 305.636719 279.867188 Z M 358.230469 118.003906 " fill-opacity="0.5" fill-rule="nonzero"/></svg>