<svg xmlns="http://www.w3.org/2000/svg" xmlns:xlink="http://www.w3.org/1999/xlink" width="2000" zoomAndPan="magnify" viewBox="0 0 1500 1499.999933" height="2000" preserveAspectRatio="xMidYMid meet" version="1.0"><path fill="#ff7f11" d="M 1387.25 498.265625 L 1351.179688 471.640625 L 1165.550781 334.582031 L 1028.402344 148.90625 L 1001.734375 112.882812 L 918.40625 0 L 581.683594 0 L 498.265625 112.882812 L 471.640625 148.90625 L 334.496094 334.582031 L 148.863281 471.640625 L 112.839844 498.398438 L 0 581.769531 L 0 918.40625 L 112.882812 1001.863281 L 148.90625 1028.488281 L 334.539062 1165.550781 L 471.683594 1351.222656 L 498.441406 1387.25 L 581.726562 1500.132812 L 918.449219 1500.132812 L 1001.863281 1387.25 L 1028.488281 1351.222656 L 1165.636719 1165.550781 L 1351.269531 1028.488281 L 1387.335938 1001.734375 L 1500.21875 918.40625 L 1500.21875 581.683594 L 1387.335938 498.265625 Z M 1372.472656 775.707031 C 1366.4375 781.738281 1363.070312 785.105469 1357.039062 791.140625 L 1181.246094 791.140625 L 957.226562 955 L 957.226562 957.316406 L 954.910156 957.316406 L 791.050781 1181.375 L 791.050781 1357.082031 L 775.621094 1372.515625 L 724.335938 1372.515625 C 718.304688 1366.480469 714.980469 1363.117188 708.992188 1357.082031 L 708.992188 1181.289062 L 545.132812 957.273438 L 542.816406 957.273438 L 542.816406 954.953125 L 318.753906 791.09375 L 142.960938 791.09375 C 136.929688 785.0625 133.605469 781.695312 127.617188 775.664062 L 127.617188 724.425781 C 133.648438 718.390625 136.972656 715.023438 142.960938 708.992188 L 318.800781 708.992188 L 542.816406 545.132812 L 542.816406 542.816406 L 545.132812 542.816406 L 708.992188 318.753906 L 708.992188 143.046875 C 715.023438 137.015625 718.347656 133.648438 724.335938 127.617188 L 775.621094 127.617188 C 781.652344 133.648438 785.019531 137.015625 791.050781 143.046875 L 791.050781 318.84375 L 954.910156 542.859375 L 957.226562 542.859375 L 957.226562 545.175781 L 1181.289062 709.035156 L 1356.996094 709.035156 L 1372.429688 724.46875 L 1372.429688 775.707031 Z M 1372.472656 775.707031 " fill-opacity="1" fill-rule="nonzero"/></svg>